<svg width="276" height="170" viewBox="0 0 276 170" fill="none" xmlns="http://www.w3.org/2000/svg">
<path d="M23.7158 169.92C23.4598 169.92 23.2038 169.728 22.9478 169.344C22.8198 169.088 22.8198 168.64 22.9478 168C24.7398 152.128 26.0838 138.304 26.9798 126.528C27.8758 114.624 28.3238 101.888 28.3238 88.32C28.3238 78.464 28.0038 70.784 27.3638 65.28C26.8518 59.648 25.8918 55.552 24.4838 52.992C23.0758 50.432 21.0918 49.152 18.5318 49.152C13.1558 49.152 8.54775 54.336 4.70775 64.704C4.19575 66.24 3.74775 67.264 3.36375 67.776C3.10775 68.288 2.59575 68.544 1.82775 68.544C0.93175 68.544 0.48375 67.392 0.48375 65.088C0.48375 60.096 1.63575 55.104 3.93975 50.112C6.37175 45.12 9.50775 41.024 13.3478 37.824C17.1878 34.496 21.1558 32.832 25.2518 32.832C32.0358 32.832 36.5798 37.504 38.8838 46.848C41.3158 56.192 42.5317 68.928 42.5317 85.056C42.5317 95.296 41.9558 109.12 40.8038 126.528H41.1877L57.6998 91.008C67.9398 69.504 73.8278 56.896 75.3638 53.184C76.5158 50.88 78.2438 48.64 80.5478 46.464C82.8518 44.16 84.8998 42.56 86.6918 41.664C88.6118 40.64 89.4438 40.768 89.1878 42.048C88.6758 44.736 88.3558 47.04 88.2278 48.96C88.2278 50.752 88.2278 53.056 88.2278 55.872C88.2278 62.784 88.3558 70.784 88.6118 79.872C88.9958 88.96 89.3798 96.256 89.7638 101.76C89.7638 102.144 90.0198 106.048 90.5317 113.472C91.2998 123.072 91.8758 131.2 92.2598 137.856H92.6438C97.7638 126.08 100.644 119.36 101.284 117.696L110.116 97.728L112.804 91.776C115.876 84.608 118.116 78.912 119.524 74.688C121.06 70.336 121.828 66.048 121.828 61.824C121.828 58.368 121.38 55.808 120.484 54.144C119.588 52.352 118.372 50.688 116.836 49.152C116.452 48.896 117.156 47.36 118.948 44.544C120.74 41.728 122.724 39.104 124.9 36.672C127.204 34.112 129.06 32.832 130.468 32.832C132.132 32.832 133.668 34.304 135.076 37.248C136.612 40.064 137.38 43.264 137.38 46.848C137.38 49.792 136.74 53.248 135.46 57.216C134.18 61.056 132.26 65.984 129.7 72L94.1798 151.872C93.2838 153.792 91.8758 156.416 89.9558 159.744C88.1638 163.072 86.7558 165.376 85.7318 166.656C84.9638 167.68 84.0678 168.448 83.0438 168.96C82.0198 169.6 81.3158 169.92 80.9318 169.92C80.4198 169.92 80.0998 169.344 79.9718 168.192C79.9718 167.168 79.9718 166.144 79.9718 165.12C79.9718 163.968 79.9718 163.072 79.9718 162.432C79.9718 155.904 79.5878 146.688 78.8198 134.784C78.0518 122.752 77.5398 114.624 77.2838 110.4C75.8758 92.736 75.1078 80.256 74.9798 72.96H74.7878C70.1798 82.176 63.4598 96.32 54.6278 115.392C45.9238 134.464 40.4838 146.752 38.3078 152.256C38.0518 152.768 37.0278 154.752 35.2358 158.208C33.4438 161.664 31.4598 164.544 29.2838 166.848C28.2598 167.872 27.1718 168.64 26.0198 169.152C24.9958 169.664 24.2278 169.92 23.7158 169.92ZM151.781 169.92C146.021 169.92 141.413 167.744 137.957 163.392C134.629 158.912 132.965 152.768 132.965 144.96C132.965 135.488 135.205 125.376 139.685 114.624C144.293 103.744 150.181 94.72 157.349 87.552C164.517 80.256 171.749 76.608 179.045 76.608C185.701 76.608 189.029 80.64 189.029 88.704C189.029 95.232 187.109 101.632 183.269 107.904C179.429 114.176 174.245 119.744 167.717 124.608C161.317 129.344 154.277 132.992 146.597 135.552C146.597 142.464 147.685 147.456 149.861 150.528C152.165 153.6 155.493 155.136 159.845 155.136C164.453 155.136 168.677 153.664 172.517 150.72C176.357 147.776 179.621 143.744 182.309 138.624C182.693 137.856 183.077 137.216 183.461 136.704C183.845 136.192 184.357 135.936 184.997 135.936C186.021 135.936 186.533 136.704 186.533 138.24C186.533 141.696 184.805 145.984 181.349 151.104C177.893 156.224 173.477 160.64 168.101 164.352C162.725 168.064 157.285 169.92 151.781 169.92ZM152.741 125.376C156.069 125.376 159.589 124.224 163.301 121.92C167.141 119.488 170.341 116.224 172.901 112.128C175.461 108.032 176.741 103.424 176.741 98.304C176.741 92.288 174.629 89.28 170.405 89.28C166.949 89.28 163.621 91.136 160.421 94.848C157.349 98.56 154.725 103.168 152.549 108.672C150.501 114.176 149.093 119.488 148.325 124.608C149.093 125.12 150.565 125.376 152.741 125.376ZM217.58 169.92C215.532 169.92 213.1 169.664 210.284 169.152C207.98 168.64 206.124 168.384 204.716 168.384C203.692 168.384 202.796 168.448 202.028 168.576C201.26 168.704 200.748 168.768 200.492 168.768H200.3C201.452 165.696 202.284 162.816 202.796 160.128C203.308 157.312 203.756 154.688 204.14 152.256L215.66 83.52C218.476 65.472 221.996 50.816 226.22 39.552C230.572 28.288 236.076 19.52 242.732 13.248C246.444 9.79199 249.9 7.42399 253.1 6.14399C256.3 4.86399 260.78 3.71199 266.54 2.68799C268.332 2.30399 269.932 1.856 271.34 1.34399C272.876 0.831993 273.9 0.575993 274.412 0.575993C275.18 0.575993 275.564 1.08799 275.564 2.112C275.564 3.904 274.348 5.75999 271.916 7.67999C270.636 8.70399 269.42 9.40799 268.268 9.79199C267.244 10.176 266.22 10.496 265.196 10.752C264.3 10.88 263.66 11.008 263.276 11.136C259.308 11.648 256.044 12.608 253.484 14.016C251.052 15.424 248.556 17.92 245.996 21.504C242.156 27.136 238.956 34.496 236.396 43.584C233.836 52.544 231.212 65.344 228.524 81.984L223.916 110.4H224.108C228.844 101.824 234.604 94.08 241.388 87.168C248.3 80.128 254.252 76.608 259.244 76.608C262.316 76.608 264.684 78.208 266.348 81.408C268.14 84.48 269.036 89.088 269.036 95.232C269.036 108.288 266.54 120.576 261.548 132.096C256.556 143.616 250.092 152.832 242.156 159.744C234.22 166.528 226.028 169.92 217.58 169.92ZM227.756 158.4C233.132 158.4 237.868 155.52 241.964 149.76C246.188 144 249.388 136.832 251.564 128.256C253.74 119.68 254.828 111.488 254.828 103.68C254.828 99.456 254.508 96.512 253.868 94.848C253.228 93.184 252.076 92.352 250.412 92.352C247.212 92.352 243.308 94.976 238.7 100.224C234.22 105.344 230.06 111.872 226.22 119.808C222.38 127.616 219.756 135.36 218.348 143.04L216.62 154.944C219.948 157.248 223.66 158.4 227.756 158.4Z" fill="#13C5C8"/>
</svg>
